<svg width="237" height="549" viewBox="0 0 237 549" fill="none" xmlns="http://www.w3.org/2000/svg">
<g clip-path="url(#clip0_615_1118)">
<path d="M32.7902 221.442L0.958968 189.409C0.201082 188.636 0.278418 187.383 1.12911 186.718L24.0977 168.776C24.9793 168.096 26.2631 168.359 26.789 169.333L48.4274 209.315C48.845 210.089 48.6439 211.048 47.9479 211.605L35.1721 221.581C34.4606 222.153 33.4243 222.091 32.7902 221.442Z" fill="#FFC600" stroke="#02394F" stroke-width="0.5521" stroke-miterlimit="10" stroke-linecap="round" stroke-linejoin="round"/>
<path d="M63.848 206.315C63.848 206.315 43.6635 190.167 37.121 195.705C30.5784 201.242 43.0912 206.238 43.0912 206.238C43.0912 206.238 27.7324 212.718 11.3528 198.009C8.24395 195.21 3.40277 198.133 4.40812 202.185C7.50154 214.714 19.1637 231.789 60.0431 230.304C60.0431 230.304 77.3662 220.669 63.848 206.315Z" fill="white" stroke="#02394F" stroke-width="0.4722" stroke-miterlimit="10" stroke-linecap="round" stroke-linejoin="round"/>
<path d="M43.0913 206.238C43.0913 206.238 45.566 205.712 48.644 204.196L43.0913 206.238Z" fill="white"/>
<path d="M43.0913 206.238C43.0913 206.238 45.566 205.712 48.644 204.196" stroke="#02394F" stroke-width="0.4722" stroke-miterlimit="10" stroke-linecap="round" stroke-linejoin="round"/>
<path d="M64.4823 198.458L57.5067 197.638C56.0218 197.468 54.7845 198.767 55.0319 200.252L60.3835 231.124C60.5537 232.114 61.358 232.872 62.3633 232.965L70.0968 233.769C71.5971 233.924 72.819 232.578 72.5252 231.109L66.4157 200.267C66.2301 199.309 65.4413 198.582 64.4823 198.458Z" fill="#DDDDDD" stroke="#02394F" stroke-width="0.4358" stroke-miterlimit="10" stroke-linecap="round" stroke-linejoin="round"/>
<path d="M130.882 102.732C130.882 102.732 137.471 97.0402 137.595 85.0223C137.595 85.0223 138.647 72.5713 127.387 88.9509C127.82 88.3168 127.603 87.2495 127.789 86.3061C128.268 83.9241 129.104 81.6814 130.171 79.5006C132.398 74.9223 135.569 70.8699 139.466 67.5909C143.596 64.1263 152.165 59.1304 149.164 52.3249C147.045 47.5302 139.064 47.855 134.873 48.0251C110.095 49.0305 108.3 76.8402 110.837 86.8165C110.837 86.8165 119.638 98.0919 130.882 102.732Z" fill="white" stroke="#02394F" stroke-width="0.566" stroke-miterlimit="10" stroke-linecap="round" stroke-linejoin="round"/>
<path d="M112.477 55.2793L157.64 55.4185C158.723 55.4185 159.558 56.3775 159.419 57.4447L155.289 85.5947L109.971 74.907C109.12 74.6595 108.579 73.8243 108.687 72.9581L110.667 56.8724C110.791 55.9598 111.564 55.2793 112.477 55.2793Z" fill="#FFC600" stroke="#02394F" stroke-width="0.5521" stroke-miterlimit="10" stroke-linecap="round" stroke-linejoin="round"/>
<path d="M135.105 504.953H157.841L158.414 489.872L137.27 488.016L135.105 504.953Z" fill="white" stroke="#02394F" stroke-width="0.3548" stroke-miterlimit="10" stroke-linecap="round" stroke-linejoin="round"/>
<path d="M217.575 518.316L214.853 534.758L182.496 534.464L184.073 517.528L212.316 514.929L217.575 518.316Z" fill="white" stroke="#02394F" stroke-width="0.4155" stroke-miterlimit="10" stroke-linecap="round" stroke-linejoin="round"/>
<path d="M42.6117 548.075C40.5546 548.06 41.9311 537.573 42.1477 536.119C44.1275 522.74 57.4291 512.949 69.1841 508C87.0176 500.483 105.47 501.473 124.293 502.555C135.352 503.19 157.439 504.458 157.748 504.473L157.516 548.245C157.532 548.245 43.3077 548.075 42.6117 548.075Z" fill="#FFC600" stroke="#02394F" stroke-width="0.4714" stroke-miterlimit="10"/>
<path d="M41.4982 544.61L157.594 545.028L157.532 548.23L42.6118 548.06C42.6118 548.075 41.0187 548.725 41.4982 544.61Z" fill="#C9C9C9" stroke="#02394F" stroke-width="0.4714" stroke-miterlimit="10"/>
<path d="M101.418 511.82C103.442 511.82 105.083 510.179 105.083 508.154C105.083 506.13 103.442 504.489 101.418 504.489C99.3931 504.489 97.752 506.13 97.752 508.154C97.752 510.179 99.3931 511.82 101.418 511.82Z" fill="#FFC600" stroke="#02394F" stroke-width="0.4714" stroke-miterlimit="10"/>
<path d="M86.3835 513.506C88.408 513.506 90.0492 511.865 90.0492 509.841C90.0492 507.816 88.408 506.175 86.3835 506.175C84.359 506.175 82.7178 507.816 82.7178 509.841C82.7178 511.865 84.359 513.506 86.3835 513.506Z" fill="#FFC600" stroke="#02394F" stroke-width="0.4714" stroke-miterlimit="10"/>
<path d="M86.8476 509.67C87.7756 509.407 88.3324 508.417 88.0695 507.489L85.4555 498.317C85.1926 497.389 84.2027 496.833 83.2747 497.096C82.3467 497.358 81.7898 498.348 82.0528 499.276L84.6667 508.448C84.9297 509.392 85.9041 509.949 86.8476 509.67Z" fill="#EFEFEF" stroke="#02394F" stroke-width="0.4714" stroke-miterlimit="10"/>
<path d="M100.938 507.799C101.077 507.799 101.217 507.783 101.356 507.737C102.145 507.489 102.593 506.654 102.361 505.865L100.149 498.565C99.9792 497.977 99.809 497.312 99.6389 496.6C98.881 493.461 97.9375 489.563 94.9215 488.109C93.5294 487.444 91.8435 487.181 89.7864 487.32L89.4307 487.351C88.8274 487.398 88.2552 487.429 87.8376 487.32C84.8524 486.485 83.6614 480.468 83.0892 477.576L83.0428 477.344C82.5169 474.715 82.1766 472.085 82.0065 469.518C81.9601 468.682 81.2177 468.048 80.4134 468.11C79.5781 468.157 78.9595 468.883 79.0059 469.703C79.176 472.41 79.5472 475.179 80.0886 477.932L80.135 478.148C80.8774 481.907 82.2539 488.882 87.0178 490.213C87.9458 490.476 88.8429 490.398 89.6472 490.352L89.972 490.336C91.5032 490.228 92.6942 490.398 93.6068 490.831C95.3545 491.666 96.097 494.806 96.7156 497.327C96.9012 498.101 97.0714 498.828 97.2724 499.462L99.4842 506.762C99.6698 507.397 100.289 507.814 100.938 507.799Z" fill="#EFEFEF" stroke="#02394F" stroke-width="0.4714" stroke-miterlimit="10"/>
<path d="M237.002 329.943L216.492 527.999H170.215L161.723 353.747L158.553 496.106L126.969 495.363C126.969 495.363 116.807 370.714 122.793 317.368L127.17 266.281L215.734 298.127L237.002 329.943Z" fill="#5353F2" stroke="#02394F" stroke-width="0.4358" stroke-miterlimit="10" stroke-linecap="round" stroke-linejoin="round"/>
<path d="M215.75 346.647L200.345 527.658" stroke="#02394F" stroke-width="0.3548" stroke-miterlimit="10" stroke-linecap="round" stroke-linejoin="round"/>
<path d="M133.032 495.518L128.222 314.244" stroke="#02394F" stroke-width="0.3548" stroke-miterlimit="10" stroke-linecap="round" stroke-linejoin="round"/>
<path d="M135.352 502.958C135.352 502.958 126.675 500.978 126.969 495.379L136.296 495.595L135.352 502.958Z" fill="#02394F" stroke="#02394F" stroke-width="0.451" stroke-miterlimit="10" stroke-linecap="round" stroke-linejoin="round"/>
<path d="M147.416 539.166C149.082 539.166 150.433 537.816 150.433 536.15C150.433 534.484 149.082 533.134 147.416 533.134C145.751 533.134 144.4 534.484 144.4 536.15C144.4 537.816 145.751 539.166 147.416 539.166Z" fill="#02394F" stroke="#02394F" stroke-width="0.4714" stroke-miterlimit="10" stroke-linecap="round" stroke-linejoin="round"/>
<path d="M79.5778 586.403C77.165 586.403 78.6962 574.106 78.9437 572.405C81.1709 556.721 96.6689 545.167 110.404 539.275C131.238 530.335 152.861 531.355 174.917 532.5C187.878 533.165 200.84 533.83 213.801 534.495C214.172 534.511 214.543 534.526 214.915 534.557L214.157 585.784C214.172 585.768 80.3976 586.403 79.5778 586.403Z" fill="#FFC600" stroke="#02394F" stroke-width="0.5521" stroke-miterlimit="10"/>
<path d="M144.911 543.512C147.277 543.512 149.195 541.594 149.195 539.228C149.195 536.862 147.277 534.943 144.911 534.943C142.545 534.943 140.626 536.862 140.626 539.228C140.626 541.594 142.545 543.512 144.911 543.512Z" fill="#FFC600" stroke="#02394F" stroke-width="0.5521" stroke-miterlimit="10"/>
<path d="M130.557 545.6C132.924 545.6 134.842 543.682 134.842 541.316C134.842 538.949 132.924 537.031 130.557 537.031C128.191 537.031 126.273 538.949 126.273 541.316C126.273 543.682 128.191 545.6 130.557 545.6Z" fill="#FFC600" stroke="#02394F" stroke-width="0.5521" stroke-miterlimit="10"/>
<path d="M112.894 551.106C115.26 551.106 117.178 549.188 117.178 546.822C117.178 544.456 115.26 542.538 112.894 542.538C110.528 542.538 108.61 544.456 108.61 546.822C108.61 549.188 110.528 551.106 112.894 551.106Z" fill="#FFC600" stroke="#02394F" stroke-width="0.5521" stroke-miterlimit="10"/>
<path d="M131.099 541.115C132.197 540.79 132.831 539.645 132.506 538.547L129.382 527.813C129.057 526.715 127.913 526.081 126.814 526.405C125.716 526.73 125.082 527.875 125.407 528.973L128.531 539.707C128.856 540.805 130.016 541.439 131.099 541.115Z" fill="#EFEFEF" stroke="#02394F" stroke-width="0.5521" stroke-miterlimit="10"/>
<path d="M144.184 538.826C144.339 538.826 144.509 538.795 144.663 538.748C145.591 538.454 146.117 537.48 145.823 536.552L143.179 528.014C142.962 527.334 142.776 526.545 142.575 525.71C141.663 522.044 140.534 517.466 136.976 515.795C135.337 515.022 133.357 514.728 130.944 514.914L130.526 514.944C129.815 515.006 129.165 515.053 128.655 514.914C125.159 513.97 123.721 506.917 123.025 503.53L122.979 503.267C122.344 500.189 121.927 497.111 121.71 494.11C121.648 493.136 120.782 492.394 119.839 492.471C118.864 492.533 118.137 493.383 118.199 494.342C118.416 497.498 118.864 500.746 119.529 503.963L119.591 504.226C120.488 508.618 122.159 516.785 127.742 518.301C128.841 518.595 129.892 518.502 130.82 518.44L131.207 518.409C132.986 518.27 134.409 518.456 135.476 518.966C137.518 519.94 138.43 523.606 139.157 526.545C139.374 527.457 139.59 528.308 139.822 529.035L142.467 537.573C142.699 538.346 143.411 538.841 144.184 538.826Z" fill="#EFEFEF" stroke="#02394F" stroke-width="0.5521" stroke-miterlimit="10"/>
<path d="M112.863 547.89C113.961 547.565 114.595 546.42 114.271 545.322L111.146 534.588C110.821 533.49 109.677 532.855 108.579 533.18C107.481 533.505 106.846 534.65 107.171 535.748L110.296 546.482C110.62 547.565 111.78 548.199 112.863 547.89Z" fill="#EFEFEF" stroke="#02394F" stroke-width="0.5521" stroke-miterlimit="10"/>
<path d="M170.215 527.999C170.215 527.999 169.828 532.453 182.65 532.871L183.099 527.999H170.215Z" fill="#02394F" stroke="#02394F" stroke-width="0.451" stroke-miterlimit="10" stroke-linecap="round" stroke-linejoin="round"/>
<path d="M164.368 30.8567C164.368 30.8567 130.171 0.216418 158.197 0.417489C186.223 0.618561 203.005 30.7638 203.005 30.7638C203.005 30.7638 202.526 16.9518 210.259 20.7876C217.993 24.6234 219.307 37.9715 205.82 51.5206C205.82 51.5206 176.912 19.5038 164.368 30.8567Z" fill="#02394F" stroke="#01394F" stroke-width="0.5374" stroke-miterlimit="10"/>
<path d="M154.624 92.5082L154.33 93.5754L151.562 103.846C146.427 135.275 186.564 113.512 186.564 113.512L196.184 79.7633C196.184 79.7633 210.491 73.4218 212.038 64.9923C213.585 56.5627 203.902 58.6353 203.902 58.6353L205.82 51.505L194.591 40.7554C173.989 21.1277 164.724 29.4799 164.724 29.4799C164.724 29.4799 158.754 53.7787 149.226 68.89C139.699 84.0013 145.793 93.3589 163.843 93.6991C181.893 94.0394 186.935 84.6354 186.935 84.6354" fill="white"/>
<path d="M154.624 92.5082L154.33 93.5754L151.562 103.846C146.427 135.275 186.564 113.512 186.564 113.512L196.184 79.7633C196.184 79.7633 210.491 73.4218 212.038 64.9923C213.585 56.5627 203.902 58.6353 203.902 58.6353L205.82 51.505L194.591 40.7554C173.989 21.1277 164.724 29.4799 164.724 29.4799C164.724 29.4799 158.754 53.7787 149.226 68.89C139.699 84.0013 145.793 93.3589 163.843 93.6991C181.893 94.0394 186.935 84.6354 186.935 84.6354" stroke="#02394F" stroke-width="0.5374" stroke-miterlimit="10" stroke-linecap="round" stroke-linejoin="round"/>
<path d="M161.213 41.4207C161.213 41.4207 139.126 19.442 157.594 22.1023L164.77 29.3254L161.213 41.4207Z" fill="#02394F"/>
<path d="M186.564 85.5947C186.564 85.5947 177.237 101.572 152.614 99.9636L154.624 92.524C154.624 92.5085 174.128 98.3551 186.564 85.5947Z" fill="#02394F"/>
<path d="M186.44 45.5038C186.44 45.5038 181.583 40.6008 175.922 40.7709L186.44 45.5038Z" fill="white"/>
<path d="M186.44 45.5038C186.44 45.5038 181.583 40.6008 175.922 40.7709" stroke="#01394F" stroke-width="0.5374" stroke-miterlimit="10" stroke-linecap="round" stroke-linejoin="round"/>
<path d="M180.624 98.262C181.171 98.262 181.614 97.8188 181.614 97.2721C181.614 96.7254 181.171 96.2822 180.624 96.2822C180.077 96.2822 179.634 96.7254 179.634 97.2721C179.634 97.8188 180.077 98.262 180.624 98.262Z" fill="#01394F"/>
<path d="M199.525 64.4356C199.602 64.3892 200.685 64.683 201.025 64.8532C202.216 65.4564 203.407 66.7711 203.283 68.1786C203.067 70.6224 200.422 71.9062 198.566 73.0043C196.679 74.1179 191.235 77.3351 191.235 77.3351L190.183 75.5564L198.612 70.576C198.612 70.576 195.906 68.9829 197.298 65.7503C197.282 65.7657 199.525 64.451 199.525 64.4356Z" fill="#E0E2E2" stroke="#02394F" stroke-width="0.5374" stroke-miterlimit="10" stroke-linecap="round" stroke-linejoin="round"/>
<path d="M190.183 75.5718C190.183 75.5718 190.059 76.9329 191.235 77.3505L190.183 75.5718Z" stroke="#02394F" stroke-width="0.5374" stroke-miterlimit="10" stroke-linecap="round" stroke-linejoin="round"/>
<path d="M206.284 63.5698C206.284 63.5698 196.014 62.0231 193.431 71.6282" stroke="#02394F" stroke-width="0.5374" stroke-miterlimit="10" stroke-linecap="round" stroke-linejoin="round"/>
<path d="M187.492 79.9027C187.492 79.9027 189.348 83.2126 196.184 79.7944" stroke="#01394F" stroke-width="0.5374" stroke-miterlimit="10"/>
<path d="M200.159 70.437C200.159 70.437 199.448 70.7773 198.613 70.5917L200.159 70.437Z" fill="white"/>
<path d="M200.159 70.437C200.159 70.437 199.448 70.7773 198.613 70.5917" stroke="#02394F" stroke-width="0.5374" stroke-miterlimit="10" stroke-linecap="round" stroke-linejoin="round"/>
<path d="M199.076 68.8745C199.247 68.8745 199.386 68.736 199.386 68.5652C199.386 68.3944 199.247 68.2559 199.076 68.2559C198.906 68.2559 198.767 68.3944 198.767 68.5652C198.767 68.736 198.906 68.8745 199.076 68.8745Z" fill="#02394F"/>
<path d="M185.543 47.5922L146.21 37.2603C146.21 37.2603 144.663 56.0218 162.42 47.8243C162.435 47.8088 171.267 65.7042 185.543 47.5922Z" fill="#02394F" stroke="#02394F" stroke-width="0.2202" stroke-miterlimit="10" stroke-linecap="round" stroke-linejoin="round"/>
<path d="M172.102 44.6536L174.267 54.5061L170.973 54.2432L168.173 43.7256L172.102 44.6536Z" fill="white"/>
<path d="M154.114 40.0906L156.248 49.046L152.892 48.9223L150.201 39.1626L154.114 40.0906Z" fill="white"/>
<path d="M156.588 40.6015L158.537 48.8609L157.547 49.0465L155.475 40.3076L156.588 40.6015Z" fill="white"/>
<path d="M174.639 45.6433L176.665 54.243L175.675 54.4286L173.525 45.334L174.639 45.6433Z" fill="white"/>
<path d="M164.894 51.5361C163.982 49.3244 160.703 46.1845 157.501 49.1697C155.939 50.6391 155.877 55.0781 161.043 56.6248" fill="white"/>
<path d="M164.894 51.5361C163.982 49.3244 160.703 46.1845 157.501 49.1697C155.939 50.6391 155.877 55.0781 161.043 56.6248" stroke="#01394F" stroke-width="0.5374" stroke-miterlimit="10" stroke-linecap="round" stroke-linejoin="round"/>
<path d="M155.289 37.5073C155.289 37.5073 161.677 34.9243 166.828 37.3063L155.289 37.5073Z" fill="white"/>
<path d="M155.289 37.5073C155.289 37.5073 161.677 34.9243 166.828 37.3063" stroke="#01394F" stroke-width="0.5374" stroke-miterlimit="10" stroke-linecap="round" stroke-linejoin="round"/>
<path d="M195.457 99.7622L191.204 97.272L189.642 102.763L195.457 99.7622Z" fill="#02394F" stroke="#02394F" stroke-width="0.451" stroke-miterlimit="10" stroke-linecap="round" stroke-linejoin="round"/>
<path d="M174.901 115.833C174.901 115.833 148.886 129.645 151.856 102.098L137.564 205.109L174.901 115.833Z" fill="#FD5A4B" stroke="#02394F" stroke-width="0.451" stroke-miterlimit="10" stroke-linecap="round" stroke-linejoin="round"/>
<path d="M118.57 326.819C126.567 326.432 136.914 323.865 145.421 303.525C145.731 302.798 145.746 301.979 145.7 301.19L138.662 206.841C138.647 206.717 138.647 206.593 138.647 206.47L137.811 138.507C137.811 138.167 137.827 137.827 137.889 137.502L143.256 129.181C144.199 123.118 144.617 109.692 141.152 114.642L118.988 130.712C118.524 131.377 119.236 145.684 119.081 146.473C116.359 159.682 89.1985 235.269 112.971 324.081C113.636 326.571 116.096 326.927 118.57 326.819Z" fill="#5353F2" stroke="#02394F" stroke-width="0.4249" stroke-miterlimit="10" stroke-linecap="round" stroke-linejoin="round"/>
<path d="M202.742 106.352C202.742 106.352 248.819 119.452 238.239 153.603C238.239 153.603 221.566 237.651 253.227 326.154C254.665 330.191 252.407 334.599 248.277 335.728C231.696 340.275 198.767 347.622 159.388 327.422C146.488 320.802 137.904 307.965 136.559 293.534C134.826 275.128 133.697 245.509 137.719 206.903L184.383 115.926L202.742 106.352Z" fill="#5353F2" stroke="#02394F" stroke-width="0.4358" stroke-miterlimit="10" stroke-linecap="round" stroke-linejoin="round"/>
<path d="M193.276 90.0181L202.742 106.351L191.869 132.398L185.636 123.257L185.558 151.685L137.719 206.918C137.719 206.918 161.863 117.642 193.276 90.0181Z" fill="#3E3EDD" stroke="#02394F" stroke-width="0.4358" stroke-miterlimit="10" stroke-linecap="round" stroke-linejoin="round"/>
<path d="M151.856 102.098L131.965 125.345L140.642 125.067L131.362 134.625L137.719 206.918L151.856 102.098Z" fill="#3E3EDD" stroke="#02394F" stroke-width="0.4358" stroke-miterlimit="10" stroke-linecap="round" stroke-linejoin="round"/>
<path d="M195.705 372.276L199.108 360.459C199.108 360.459 177.345 348.472 170.277 339.27L168.869 337.785L166.41 342.889" fill="#5353F2"/>
<path d="M133.001 284.872L125.453 285.259" stroke="#02394F" stroke-width="0.451" stroke-miterlimit="10" stroke-linecap="round" stroke-linejoin="round"/>
<path d="M143.689 287.3C145.141 287.3 146.318 286.123 146.318 284.671C146.318 283.219 145.141 282.042 143.689 282.042C142.237 282.042 141.06 283.219 141.06 284.671C141.06 286.123 142.237 287.3 143.689 287.3Z" fill="#02394F" stroke="#02394F" stroke-width="0.451" stroke-miterlimit="10" stroke-linecap="round" stroke-linejoin="round"/>
<path d="M131.377 246.499L123.829 246.932" stroke="#02394F" stroke-width="0.451" stroke-miterlimit="10" stroke-linecap="round" stroke-linejoin="round"/>
<path d="M143.689 249.344C145.141 249.344 146.318 248.167 146.318 246.715C146.318 245.263 145.141 244.085 143.689 244.085C142.237 244.085 141.06 245.263 141.06 246.715C141.06 248.167 142.237 249.344 143.689 249.344Z" fill="#02394F" stroke="#02394F" stroke-width="0.451" stroke-miterlimit="10" stroke-linecap="round" stroke-linejoin="round"/>
<path d="M235.563 343.894L213.584 342.394L215.75 340.832C215.75 340.832 227.01 340.677 236.105 338.62L235.563 343.894Z" fill="#02394F" stroke="#02394F" stroke-width="0.451" stroke-miterlimit="10" stroke-linecap="round" stroke-linejoin="round"/>
<path d="M136.961 317.94C136.961 317.94 132.506 326.989 121.679 331.196L121.973 326.494C121.973 326.494 128.439 326.03 136.961 317.94Z" fill="#02394F" stroke="#02394F" stroke-width="0.451" stroke-miterlimit="10" stroke-linecap="round" stroke-linejoin="round"/>
<path d="M189.642 215.688C189.642 215.688 231.712 191.157 233.862 213.058L235.934 167.461C235.95 167.446 207.181 204.83 189.642 215.688Z" fill="#02394F" stroke="#01394F" stroke-width="0.5374" stroke-miterlimit="10"/>
<path d="M98.7881 99.0819L106.522 85.177C107.063 84.0634 108.594 83.9397 109.337 84.9141C112.476 89.1057 120.194 98.1384 135.94 105.207L130.403 113.915C130.403 113.915 113.544 114.905 105.949 106.119L98.7881 99.0819Z" fill="#EAEAEA" stroke="#02394F" stroke-width="0.566" stroke-miterlimit="10" stroke-linecap="round" stroke-linejoin="round"/>
<path d="M130.248 110.265C130.248 110.265 122.948 132.383 120.256 153.619C116.915 180.021 113.745 195.689 113.157 201.489C112.554 207.351 111.966 224.922 111.966 224.922C111.966 224.922 104.681 243.482 91.7814 229.361C58.2334 192.611 88.9664 110.327 96.2823 92.0291C97.0402 90.1421 97.4888 88.812 98.3549 88.9357C105.795 90.0029 115.74 101.418 130.248 110.265Z" fill="#5353F2" stroke="#02394F" stroke-width="0.4897" stroke-miterlimit="10" stroke-linecap="round" stroke-linejoin="round"/>
<path d="M123.938 106.088L133.481 111.796C135.182 112.059 136.048 113.992 135.089 115.43C129.97 123.071 117.302 143.905 115.755 165.312C114.209 186.672 112.384 213.244 111.688 223.329C111.564 225.154 109.491 226.144 107.991 225.092" fill="#5353F2"/>
<path d="M123.938 106.088L133.481 111.796C135.182 112.059 136.048 113.992 135.089 115.43C129.97 123.071 117.302 143.905 115.755 165.312C114.209 186.672 112.384 213.244 111.688 223.329C111.564 225.154 109.491 226.144 107.991 225.092" stroke="#02394F" stroke-width="0.4897" stroke-miterlimit="10" stroke-linecap="round" stroke-linejoin="round"/>
<path d="M106.506 234.078C106.506 234.078 108.331 181.568 116.9 156.294L106.506 234.078Z" fill="#5353F2"/>
<path d="M106.506 234.078C106.506 234.078 108.331 181.568 116.9 156.294" stroke="#02394F" stroke-width="0.4897" stroke-miterlimit="10" stroke-linecap="round" stroke-linejoin="round"/>
<path d="M101.186 234.666C101.186 234.666 82.3931 221.674 85.4865 173.231L101.186 234.666Z" fill="#5353F2"/>
<path d="M101.186 234.666C101.186 234.666 82.3931 221.674 85.4865 173.231" stroke="#02394F" stroke-width="0.459" stroke-miterlimit="10" stroke-linecap="round" stroke-linejoin="round"/>
<path d="M108.687 202.587C108.687 202.587 113.513 162.729 119.932 145.668" stroke="#02394F" stroke-width="0.4358" stroke-miterlimit="10" stroke-linecap="round" stroke-linejoin="round"/>
<path d="M126.783 92.8485C126.783 92.8485 127.603 87.0638 128.16 85.0376L126.783 92.8485Z" fill="white"/>
<path d="M126.783 92.8485C126.783 92.8485 127.603 87.0638 128.16 85.0376" stroke="#02394F" stroke-width="0.566" stroke-miterlimit="10" stroke-linecap="round" stroke-linejoin="round"/>
<path d="M126.289 130.542C126.289 130.542 112.6 151.005 108.208 207.552L126.289 130.542Z" fill="#5353F2"/>
<path d="M126.289 130.542C126.289 130.542 112.6 151.005 108.208 207.552" stroke="#02394F" stroke-width="0.4358" stroke-miterlimit="10" stroke-linecap="round" stroke-linejoin="round"/>
<path d="M120.689 150.68L111.703 189.1L117.256 186.161L122.546 172.241L126.289 152.226L120.689 150.68Z" fill="#5353F2"/>
<path d="M238.904 150.294C226.933 194.576 194.56 267.456 71.9991 238.889C68.4727 238.069 65.7969 235.177 65.271 231.588L60.7237 200.763C60.2133 197.298 63.3221 194.406 66.7404 195.133C89.446 199.974 160.146 208.481 184.414 134.192C189.224 119.499 204.706 111.177 219.493 115.709L219.911 115.833C234.527 120.303 242.895 135.553 238.904 150.294Z" fill="#5353F2" stroke="#02394F" stroke-width="0.4358" stroke-miterlimit="10" stroke-linecap="round" stroke-linejoin="round"/>
<path d="M132.661 82.3463C132.661 82.3463 137.719 76.1131 137.595 83.7229L132.661 82.3463Z" fill="white"/>
<path d="M132.661 82.3463C132.661 82.3463 137.719 76.1131 137.595 83.7229" stroke="#02394F" stroke-width="0.566" stroke-miterlimit="10" stroke-linecap="round" stroke-linejoin="round"/>
<path d="M108.161 70.7928C103.335 70.236 73.8706 79.1914 59.1615 125.283C52.8973 144.926 57.6612 171.607 57.7849 203.763C57.8777 226.175 50.9021 252.747 56.1145 282.227C57.5529 290.317 51.629 284.841 44.7616 272.112C41.529 266.111 46.6486 255.083 43.9883 247.442C41.4053 240.049 30.4546 234.264 29.8359 227.087" stroke="#02394F" stroke-width="0.5521" stroke-miterlimit="10" stroke-linecap="round" stroke-linejoin="round"/>
<path d="M149.783 54.7998C149.783 54.7998 141.199 66.199 129.877 54.7998H149.783Z" fill="white"/>
<path d="M149.783 54.7998C149.783 54.7998 141.199 66.199 129.877 54.7998" stroke="#02394F" stroke-width="0.566" stroke-miterlimit="10" stroke-linecap="round" stroke-linejoin="round"/>
<path d="M156.264 78.8509C156.264 78.8509 153.325 72.726 161.677 71.4577C170.029 70.1894 175.195 65.4101 177.577 67.0032C179.959 68.5963 183.779 78.7736 175.907 78.8509C168.034 78.9283 166.441 84.0169 162.234 83.4601C158.011 82.9033 156.264 78.8509 156.264 78.8509Z" fill="white" stroke="#02394F" stroke-width="0.4618" stroke-miterlimit="10" stroke-linecap="round" stroke-linejoin="round"/>
<path d="M157.517 80.5523C157.517 80.5523 159.048 78.588 162.11 77.7837L157.517 80.5523Z" fill="white"/>
<path d="M157.517 80.5523C157.517 80.5523 159.048 78.588 162.11 77.7837" stroke="#02394F" stroke-width="0.4618" stroke-miterlimit="10" stroke-linecap="round" stroke-linejoin="round"/>
<path d="M180.145 71.3647C180.145 71.3647 175.984 71.6896 173.741 73.4219L180.145 71.3647Z" fill="white"/>
<path d="M180.145 71.3647C180.145 71.3647 175.984 71.6896 173.741 73.4219" stroke="#02394F" stroke-width="0.4618" stroke-miterlimit="10" stroke-linecap="round" stroke-linejoin="round"/>
<path d="M115.493 60.3675C116.039 60.3675 116.482 59.9243 116.482 59.3776C116.482 58.8309 116.039 58.3877 115.493 58.3877C114.946 58.3877 114.503 58.8309 114.503 59.3776C114.503 59.9243 114.946 60.3675 115.493 60.3675Z" fill="#01394F"/>
<path d="M24.4535 176.2C25.0002 176.2 25.4434 175.757 25.4434 175.211C25.4434 174.664 25.0002 174.221 24.4535 174.221C23.9068 174.221 23.4636 174.664 23.4636 175.211C23.4636 175.757 23.9068 176.2 24.4535 176.2Z" fill="#01394F"/>
<path d="M109.986 67.3124C109.986 67.3124 110.559 72.664 117.364 76.6545L109.986 74.9067L109.105 74.3035L108.718 72.9579L109.414 67.3124L109.631 65.5337L109.986 67.3124Z" fill="#01394F"/>
<path d="M71.3959 516.661C73.4204 516.661 75.0616 515.02 75.0616 512.996C75.0616 510.971 73.4204 509.33 71.3959 509.33C69.3714 509.33 67.7302 510.971 67.7302 512.996C67.7302 515.02 69.3714 516.661 71.3959 516.661Z" fill="#FFC600" stroke="#02394F" stroke-width="0.4714" stroke-miterlimit="10"/>
<path d="M71.86 512.841C72.788 512.578 73.3449 511.588 73.0819 510.66L70.468 501.488C70.2051 500.56 69.2152 500.003 68.2871 500.266C67.3591 500.529 66.8023 501.519 67.0652 502.447L69.6792 511.619C69.9421 512.563 70.932 513.104 71.86 512.841Z" fill="#EFEFEF" stroke="#02394F" stroke-width="0.4714" stroke-miterlimit="10"/>
</g>
<defs>
<clipPath id="clip0_615_1118">
<rect width="254" height="586.882" fill="white"/>
</clipPath>
</defs>
</svg>
