<svg width="1200" height="750" viewBox="0 0 1200 750" fill="none" xmlns="http://www.w3.org/2000/svg">
<g clip-path="url(#clip0_3262_672)">
<rect width="1200" height="750" fill="#FFC600" fill-opacity="0.85"/>
<path d="M751.497 8.48115C749.784 57.9536 726.918 90.7434 698.191 106.387C663.806 125.124 615.895 121.939 594.718 87.1408C573.617 52.3251 546.613 12.0799 504.007 26.7325C461.308 41.3269 463.376 -16.4877 474.23 -46.0566C485.009 -75.6078 521.692 -132.488 609.024 -131.342C679.565 -130.342 754.49 -76.3306 751.497 8.48115Z" fill="#FD5A4B"/>
<path d="M1283.02 658.263C1307.42 672.46 1317.73 692.788 1317.85 711.44C1317.99 733.768 1303.48 756.983 1280.28 758.244C1257.1 759.462 1229.6 762.183 1225.48 787.541C1221.3 812.931 1192.81 796.307 1180.88 782.883C1168.93 769.501 1150.24 735.736 1174.36 692.162C1193.87 656.987 1241.21 633.898 1283.02 658.263Z" fill="#5353F2"/>
<path d="M14.264 598.882C50.1517 583.384 81.6096 588.859 102.908 604.382C128.41 622.959 143.053 658.754 125.712 685.873C108.331 712.943 89.1622 746.128 114.654 772.043C140.137 798.046 98.1738 816.108 73.2538 818.248C48.3731 820.436 -5.14337 813.1 -35.1576 749.429C-59.348 697.976 -47.2791 625.409 14.264 598.882Z" fill="#FD5A4B"/>
<path d="M839.849 452.649L819.087 431.789C818.658 431.358 818.658 430.754 819.087 430.323C819.516 429.892 820.116 429.892 820.545 430.323L841.307 451.184C841.736 451.615 841.736 452.218 841.307 452.649C840.878 452.994 840.278 452.994 839.849 452.649Z" fill="#110F6E"/>
<path d="M837.103 442.391L829.296 434.547C828.867 434.116 828.867 433.513 829.296 433.082C829.725 432.651 830.325 432.651 830.754 433.082L838.561 440.926C838.99 441.357 838.99 441.96 838.561 442.391C838.133 442.822 837.446 442.822 837.103 442.391Z" fill="#110F6E"/>
<path d="M839.848 460.062L811.708 431.789C811.279 431.358 811.279 430.754 811.708 430.323C812.137 429.892 812.738 429.892 813.167 430.323L841.307 458.597C841.736 459.028 841.736 459.631 841.307 460.062C840.878 460.493 840.277 460.493 839.848 460.062Z" fill="#110F6E"/>
<path d="M838.305 465.924L805.789 433.254C805.36 432.823 805.36 432.22 805.789 431.789C806.218 431.358 806.819 431.358 807.247 431.789L839.763 464.458C840.192 464.889 840.192 465.493 839.763 465.924C839.334 466.355 838.733 466.355 838.305 465.924Z" fill="#110F6E"/>
<path d="M835.73 470.837L800.984 435.84C800.555 435.409 800.555 434.806 800.984 434.375C801.413 433.944 802.014 433.944 802.443 434.375L837.275 469.372C837.704 469.803 837.704 470.406 837.275 470.837C836.846 471.268 836.159 471.268 835.73 470.837Z" fill="#110F6E"/>
<path d="M832.471 474.975L796.867 439.202C796.438 438.771 796.438 438.167 796.867 437.736C797.296 437.305 797.896 437.305 798.325 437.736L833.929 473.509C834.358 473.94 834.358 474.544 833.929 474.975C833.5 475.319 832.814 475.319 832.471 474.975Z" fill="#110F6E"/>
<path d="M828.352 478.337L793.52 443.339C793.091 442.908 793.091 442.305 793.52 441.874C793.949 441.443 794.55 441.443 794.979 441.874L829.811 476.871C830.24 477.302 830.24 477.906 829.811 478.337C829.382 478.681 828.781 478.681 828.352 478.337Z" fill="#110F6E"/>
<path d="M823.462 480.836L791.032 448.167C790.603 447.736 790.603 447.132 791.032 446.701C791.461 446.27 792.062 446.27 792.491 446.701L825.006 479.371C825.435 479.802 825.435 480.405 825.006 480.836C824.577 481.267 823.891 481.267 823.462 480.836Z" fill="#110F6E"/>
<path d="M817.628 482.388L789.488 454.114C789.059 453.683 789.059 453.08 789.488 452.649C789.917 452.218 790.518 452.218 790.947 452.649L819.087 480.922C819.516 481.353 819.516 481.957 819.087 482.388C818.658 482.819 818.057 482.819 817.628 482.388Z" fill="#110F6E"/>
<path d="M810.25 482.388L789.488 461.527C789.059 461.096 789.059 460.493 789.488 460.062C789.917 459.631 790.518 459.631 790.947 460.062L811.709 480.922C812.138 481.353 812.138 481.957 811.709 482.388C811.28 482.819 810.593 482.819 810.25 482.388Z" fill="#110F6E"/>
<path d="M800.041 479.629L792.234 471.785C791.805 471.354 791.805 470.751 792.234 470.32C792.663 469.889 793.263 469.889 793.692 470.32L801.499 478.164C801.928 478.595 801.928 479.198 801.499 479.629C801.07 479.974 800.47 479.974 800.041 479.629Z" fill="#110F6E"/>
<path d="M1147.58 31.5127L1145.77 33.3377V30.7612H1144.34V33.3377L1142.52 31.5127L1141.51 32.5277L1143.32 34.3527H1140.76V35.7874H1143.32L1141.51 37.6124L1142.52 38.6274L1144.34 36.8024V34.3527H1146.78L1148.59 32.5277L1147.58 31.5127Z" fill="white"/>
<mask id="path-16-inside-1_3262_672" fill="white">
<path d="M1149.15 34.5477V35.592H1146.78H1146.31L1146.64 35.9238L1147.36 36.646L1147.42 36.7046H1147.5H1149.15V37.7488H1146.98L1145.9 36.6655L1145.57 36.3337V36.8022V39.1835H1144.53V36.8022V34.5477H1149.15ZM1149.35 34.3525H1144.34V36.8022V39.3787H1145.77V36.8022L1146.91 37.944H1149.35V36.5094H1147.5L1146.78 35.7872H1149.35V34.3525V34.3525Z"/>
</mask>
<path d="M1149.15 34.5477V35.592H1146.78H1146.31L1146.64 35.9238L1147.36 36.646L1147.42 36.7046H1147.5H1149.15V37.7488H1146.98L1145.9 36.6655L1145.57 36.3337V36.8022V39.1835H1144.53V36.8022V34.5477H1149.15ZM1149.35 34.3525H1144.34V36.8022V39.3787H1145.77V36.8022L1146.91 37.944H1149.35V36.5094H1147.5L1146.78 35.7872H1149.35V34.3525V34.3525Z" fill="white"/>
<path d="M1149.15 34.5477H1155.15V28.5477H1149.15V34.5477ZM1149.15 35.592V41.592H1155.15V35.592H1149.15ZM1146.31 35.592V29.592H1131.87L1142.06 39.8263L1146.31 35.592ZM1146.64 35.9238L1142.39 40.1581L1142.39 40.1582L1146.64 35.9238ZM1147.36 36.646L1151.61 32.4118L1151.61 32.4117L1147.36 36.646ZM1147.42 36.7046L1143.17 40.9388L1144.93 42.7046H1147.42V36.7046ZM1149.15 36.7046H1155.15V30.7046H1149.15V36.7046ZM1149.15 37.7488V43.7488H1155.15V37.7488H1149.15ZM1146.98 37.7488L1142.73 41.9832L1144.49 43.7488H1146.98V37.7488ZM1145.9 36.6655L1150.15 32.4312L1150.15 32.4312L1145.9 36.6655ZM1145.57 36.3337L1149.82 32.0994L1139.57 21.8084V36.3337H1145.57ZM1145.57 39.1835V45.1835H1151.57V39.1835H1145.57ZM1144.53 39.1835H1138.53V45.1835H1144.53V39.1835ZM1144.53 34.5477V28.5477H1138.53V34.5477H1144.53ZM1144.34 34.3525V28.3525H1138.34V34.3525H1144.34ZM1144.34 39.3787H1138.34V45.3787H1144.34V39.3787ZM1145.77 39.3787V45.3787H1151.77V39.3787H1145.77ZM1145.77 36.8022L1150.02 32.5678L1139.77 22.2768V36.8022H1145.77ZM1146.91 37.944L1142.65 42.1784L1144.41 43.944H1146.91V37.944ZM1149.35 37.944V43.944H1155.35V37.944H1149.35ZM1149.35 36.5094H1155.35V30.5094H1149.35V36.5094ZM1147.5 36.5094L1143.25 40.7437L1145.01 42.5094H1147.5V36.5094ZM1146.78 35.7872V29.7872H1132.33L1142.53 40.0215L1146.78 35.7872ZM1149.35 35.7872V41.7872H1155.35V35.7872H1149.35ZM1143.15 34.5477V35.592H1155.15V34.5477H1143.15ZM1149.15 29.592H1146.78V41.592H1149.15V29.592ZM1146.78 29.592H1146.31V41.592H1146.78V29.592ZM1142.06 39.8263L1142.39 40.1581L1150.89 31.6895L1150.56 31.3577L1142.06 39.8263ZM1142.39 40.1582L1143.11 40.8804L1151.61 32.4117L1150.89 31.6895L1142.39 40.1582ZM1143.11 40.8803L1143.17 40.9388L1151.67 32.4703L1151.61 32.4118L1143.11 40.8803ZM1147.42 42.7046H1147.5V30.7046H1147.42V42.7046ZM1147.5 42.7046H1149.15V30.7046H1147.5V42.7046ZM1143.15 36.7046V37.7488H1155.15V36.7046H1143.15ZM1149.15 31.7488H1146.98V43.7488H1149.15V31.7488ZM1151.23 33.5145L1150.15 32.4312L1141.65 40.8999L1142.73 41.9832L1151.23 33.5145ZM1150.15 32.4312L1149.82 32.0994L1141.32 40.5681L1141.65 40.8999L1150.15 32.4312ZM1139.57 36.3337V36.8022H1151.57V36.3337H1139.57ZM1139.57 36.8022V39.1835H1151.57V36.8022H1139.57ZM1145.57 33.1835H1144.53V45.1835H1145.57V33.1835ZM1150.53 39.1835V36.8022H1138.53V39.1835H1150.53ZM1150.53 36.8022V34.5477H1138.53V36.8022H1150.53ZM1144.53 40.5477H1149.15V28.5477H1144.53V40.5477ZM1149.35 28.3525H1144.34V40.3525H1149.35V28.3525ZM1138.34 34.3525V36.8022H1150.34V34.3525H1138.34ZM1138.34 36.8022V39.3787H1150.34V36.8022H1138.34ZM1144.34 45.3787H1145.77V33.3787H1144.34V45.3787ZM1151.77 39.3787V36.8022H1139.77V39.3787H1151.77ZM1141.52 41.0365L1142.65 42.1784L1151.16 33.7097L1150.02 32.5678L1141.52 41.0365ZM1146.91 43.944H1149.35V31.944H1146.91V43.944ZM1155.35 37.944V36.5094H1143.35V37.944H1155.35ZM1149.35 30.5094H1147.5V42.5094H1149.35V30.5094ZM1151.75 32.2751L1151.03 31.5529L1142.53 40.0215L1143.25 40.7437L1151.75 32.2751ZM1146.78 41.7872H1149.35V29.7872H1146.78V41.7872ZM1155.35 35.7872V34.3525H1143.35V35.7872H1155.35Z" fill="white" mask="url(#path-16-inside-1_3262_672)"/>
<path d="M1098.26 34.471V38.4294H1107.14V42.0669H1098.26V49.1668H1094.17V30.8335H1108.33V34.471H1098.26Z" fill="white"/>
<path d="M1118.63 48.8972V46.9146C1118.42 47.213 1118.17 47.4921 1117.9 47.7615C1117.64 48.031 1117.35 48.2716 1117.03 48.4834C1116.7 48.6951 1116.34 48.8587 1115.96 48.9838C1115.57 49.1089 1115.12 49.1667 1114.63 49.1667C1113.16 49.1667 1112.01 48.7047 1111.21 47.7904C1110.41 46.8761 1110 45.6154 1110 44.0082V35H1113.87V42.7281C1113.87 43.6617 1114.08 44.3642 1114.48 44.8358C1114.89 45.3074 1115.47 45.548 1116.21 45.548C1116.96 45.548 1117.55 45.3074 1117.98 44.8358C1118.42 44.3642 1118.63 43.6617 1118.63 42.7281V35H1122.5V48.8876H1118.63V48.8972Z" fill="white"/>
<path d="M1138.66 49.3512C1138.34 50.2746 1137.84 51.0345 1137.17 51.6212C1136.51 52.2079 1135.68 52.6408 1134.68 52.9197C1133.68 53.1987 1132.52 53.3333 1131.19 53.3333C1130.02 53.3333 1128.89 53.2083 1127.83 52.9582C1126.77 52.7081 1125.79 52.3522 1124.88 51.8809L1126.26 48.9279C1127 49.3223 1127.76 49.6397 1128.52 49.861C1129.27 50.0822 1130.13 50.1976 1131.09 50.1976C1132.47 50.1976 1133.5 49.8802 1134.16 49.2357C1134.83 48.6009 1135.16 47.6583 1135.16 46.4175V45.7441C1134.56 46.4559 1133.91 47.0042 1133.19 47.3986C1132.48 47.7929 1131.59 47.9949 1130.5 47.9949C1129.67 47.9949 1128.87 47.8506 1128.11 47.5717C1127.35 47.2831 1126.68 46.8695 1126.08 46.3116C1125.5 45.7634 1125.04 45.0804 1124.69 44.2821C1124.34 43.4837 1124.17 42.5603 1124.17 41.5215V41.4734C1124.17 40.4346 1124.34 39.5208 1124.7 38.7128C1125.06 37.9145 1125.52 37.2315 1126.11 36.6833C1126.7 36.135 1127.37 35.7118 1128.14 35.4232C1128.9 35.1347 1129.69 35 1130.51 35C1131.61 35 1132.52 35.202 1133.23 35.5964C1133.95 35.9907 1134.58 36.4813 1135.12 37.068V35.2501H1139.17V46.0038C1139.16 47.312 1138.99 48.4278 1138.66 49.3512ZM1135.16 41.4734C1135.16 41.0117 1135.07 40.5789 1134.89 40.1749C1134.72 39.7805 1134.47 39.4342 1134.16 39.1553C1133.86 38.8667 1133.48 38.6551 1133.06 38.4916C1132.63 38.3377 1132.17 38.2608 1131.67 38.2608C1131.18 38.2608 1130.71 38.3377 1130.3 38.4916C1129.88 38.6455 1129.52 38.8667 1129.21 39.1553C1128.9 39.4439 1128.66 39.7805 1128.48 40.1749C1128.3 40.5693 1128.21 41.0021 1128.21 41.4734V41.5215C1128.21 42.493 1128.54 43.2625 1129.2 43.8492C1129.85 44.436 1130.68 44.7342 1131.67 44.7342C1132.17 44.7342 1132.63 44.6572 1133.06 44.5033C1133.48 44.3494 1133.85 44.1282 1134.16 43.8396C1134.47 43.5511 1134.72 43.2144 1134.89 42.82C1135.07 42.4257 1135.16 41.9928 1135.16 41.5215V41.4734V41.4734Z" fill="white"/>
<path d="M1151.67 33.5389V30H1155.83V33.5389H1151.67ZM1151.76 49.1667V35.089H1155.72V49.1569H1151.76V49.1667Z" fill="white"/>
<path d="M1164.36 48.9474C1163.84 49.0903 1163.24 49.1665 1162.57 49.1665C1161.94 49.1665 1161.37 49.0998 1160.86 48.976C1160.35 48.8521 1159.91 48.6235 1159.55 48.2996C1159.18 47.9757 1158.89 47.5565 1158.69 47.0326C1158.48 46.5086 1158.38 45.8513 1158.38 45.0416V38.516H1156.67V35.1817H1158.38V31.6665H1162.46V35.1817H1165.83V38.516H1162.46V44.3938C1162.46 45.2797 1162.89 45.7275 1163.77 45.7275C1164.49 45.7275 1165.16 45.5655 1165.78 45.2416V48.3663C1165.34 48.6044 1164.88 48.8045 1164.36 48.9474Z" fill="white"/>
<path d="M21.5157 342.967L0.753852 322.107C0.324888 321.676 0.324888 321.073 0.753852 320.642C1.18282 320.211 1.78336 320.211 2.21233 320.642L22.9742 341.502C23.4032 341.933 23.4032 342.536 22.9742 342.967C22.5452 343.312 21.9447 343.312 21.5157 342.967Z" fill="#110F6E"/>
<path d="M18.77 332.71L10.9628 324.865C10.5339 324.434 10.5339 323.831 10.9628 323.4C11.3918 322.969 11.9924 322.969 12.4213 323.4L20.2285 331.244C20.6574 331.675 20.6574 332.279 20.2285 332.71C19.7995 333.141 19.1132 333.141 18.77 332.71Z" fill="#110F6E"/>
<path d="M21.5155 350.381L-6.62457 322.107C-7.05353 321.676 -7.05353 321.073 -6.62457 320.642C-6.1956 320.211 -5.59505 320.211 -5.16609 320.642L22.974 348.915C23.4029 349.346 23.4029 349.95 22.974 350.381C22.545 350.812 21.9445 350.812 21.5155 350.381Z" fill="#110F6E"/>
<path d="M19.9715 356.242L-12.544 323.572C-12.973 323.141 -12.973 322.538 -12.544 322.107C-12.115 321.676 -11.5145 321.676 -11.0855 322.107L21.43 354.777C21.8589 355.208 21.8589 355.811 21.43 356.242C21.001 356.673 20.4005 356.673 19.9715 356.242Z" fill="#110F6E"/>
<path d="M17.3974 361.155L-17.3487 326.158C-17.7777 325.727 -17.7777 325.124 -17.3487 324.693C-16.9197 324.262 -16.3192 324.262 -15.8902 324.693L18.9417 359.69C19.3707 360.121 19.3707 360.724 18.9417 361.155C18.5127 361.586 17.8264 361.586 17.3974 361.155Z" fill="#110F6E"/>
<path d="M14.1377 365.293L-21.4664 329.52C-21.8953 329.089 -21.8953 328.486 -21.4664 328.055C-21.0374 327.624 -20.4368 327.624 -20.0079 328.055L15.5962 363.828C16.0251 364.259 16.0251 364.862 15.5962 365.293C15.1672 365.638 14.4808 365.638 14.1377 365.293Z" fill="#110F6E"/>
<path d="M10.0194 368.655L-24.8126 333.658C-25.2415 333.227 -25.2415 332.623 -24.8126 332.192C-24.3836 331.761 -23.783 331.761 -23.3541 332.192L11.4778 367.19C11.9068 367.621 11.9068 368.224 11.4778 368.655C11.0489 369 10.4483 369 10.0194 368.655Z" fill="#110F6E"/>
<path d="M5.12887 371.155L-27.3008 338.485C-27.7298 338.054 -27.7298 337.451 -27.3008 337.02C-26.8719 336.589 -26.2713 336.589 -25.8424 337.02L6.67314 369.689C7.1021 370.12 7.1021 370.724 6.67314 371.155C6.24417 371.586 5.55783 371.586 5.12887 371.155Z" fill="#110F6E"/>
<path d="M-0.704716 372.706L-28.8448 344.433C-29.2737 344.002 -29.2737 343.398 -28.8448 342.967C-28.4158 342.536 -27.8153 342.536 -27.3863 342.967L0.753763 371.241C1.18273 371.672 1.18273 372.275 0.753763 372.706C0.324799 373.137 -0.275752 373.137 -0.704716 372.706Z" fill="#110F6E"/>
<path d="M420.002 670.23C428.581 670.23 435.616 677.298 435.616 685.918C435.616 694.538 428.581 701.607 420.002 701.607C411.422 701.607 404.387 694.538 404.387 685.918C404.387 677.212 411.422 670.23 420.002 670.23ZM420.002 668.333C410.307 668.333 402.5 676.178 402.5 685.918C402.5 695.659 410.307 703.503 420.002 703.503C429.696 703.503 437.504 695.659 437.504 685.918C437.504 676.178 429.611 668.333 420.002 668.333Z" fill="#110F6E"/>
<path d="M1224.85 390.896L1196.71 362.622C1196.28 362.191 1196.28 361.588 1196.71 361.157C1197.14 360.726 1197.74 360.726 1198.17 361.157L1226.31 389.43C1226.74 389.861 1226.74 390.465 1226.31 390.896C1225.88 391.327 1225.28 391.327 1224.85 390.896Z" fill="#110F6E"/>
<path d="M1223.3 396.757L1190.79 364.087C1190.36 363.656 1190.36 363.053 1190.79 362.622C1191.22 362.191 1191.82 362.191 1192.25 362.622L1224.76 395.292C1225.19 395.723 1225.19 396.326 1224.76 396.757C1224.33 397.188 1223.73 397.188 1223.3 396.757Z" fill="#110F6E"/>
<path d="M1220.73 401.671L1185.98 366.673C1185.56 366.242 1185.56 365.639 1185.98 365.208C1186.41 364.777 1187.01 364.777 1187.44 365.208L1222.27 400.205C1222.7 400.636 1222.7 401.24 1222.27 401.671C1221.85 402.102 1221.16 402.102 1220.73 401.671Z" fill="#110F6E"/>
<path d="M1217.47 405.808L1181.87 370.035C1181.44 369.604 1181.44 369.001 1181.87 368.57C1182.3 368.139 1182.9 368.139 1183.33 368.57L1218.93 404.343C1219.36 404.774 1219.36 405.377 1218.93 405.808C1218.5 406.153 1217.81 406.153 1217.47 405.808Z" fill="#110F6E"/>
<path d="M1213.35 409.17L1178.52 374.173C1178.09 373.742 1178.09 373.139 1178.52 372.708C1178.95 372.277 1179.55 372.277 1179.98 372.708L1214.81 407.705C1215.24 408.136 1215.24 408.739 1214.81 409.17C1214.38 409.515 1213.78 409.515 1213.35 409.17Z" fill="#110F6E"/>
<path d="M1208.46 411.67L1176.03 379C1175.6 378.569 1175.6 377.966 1176.03 377.535C1176.46 377.104 1177.06 377.104 1177.49 377.535L1210.01 410.204C1210.44 410.635 1210.44 411.239 1210.01 411.67C1209.58 412.101 1208.89 412.101 1208.46 411.67Z" fill="#110F6E"/>
<path d="M1202.63 413.221L1174.49 384.948C1174.06 384.517 1174.06 383.913 1174.49 383.482C1174.92 383.051 1175.52 383.051 1175.95 383.482L1204.09 411.756C1204.52 412.187 1204.52 412.79 1204.09 413.221C1203.66 413.652 1203.06 413.652 1202.63 413.221Z" fill="#110F6E"/>
<path d="M1195.25 413.221L1174.49 392.361C1174.06 391.93 1174.06 391.327 1174.49 390.896C1174.92 390.465 1175.52 390.465 1175.95 390.896L1196.71 411.756C1197.14 412.187 1197.14 412.79 1196.71 413.221C1196.28 413.652 1195.59 413.652 1195.25 413.221Z" fill="#110F6E"/>
<path d="M1185.04 410.463L1177.23 402.619C1176.8 402.188 1176.8 401.584 1177.23 401.153C1177.66 400.722 1178.26 400.722 1178.69 401.153L1186.5 408.997C1186.93 409.428 1186.93 410.032 1186.5 410.463C1186.07 410.808 1185.47 410.808 1185.04 410.463Z" fill="#110F6E"/>
<path d="M36.6184 105.863C21.5776 111.057 3.5029 109.282 -10.1822 94.0278C-23.8674 78.774 -21.8017 64.638 -17.9931 57.2084C-14.7655 50.9622 -9.4076 43.7956 2.21186 44.3873C13.8313 44.979 21.3194 41.0341 27.9683 33.0127C34.6173 24.9256 42.9445 15.918 53.3375 26.4378C63.7305 36.9577 65.9898 48.398 66.8935 59.0494C68.8947 80.8123 52.8856 100.208 36.6184 105.863Z" fill="#5353F2"/>
<ellipse cx="565.465" cy="597.738" rx="110.601" ry="6.59547" fill="#DAAE1A"/>
<path d="M649.01 113.025L560.576 168.414L583.975 66.6551L527.214 53.6035L503.816 155.362L448.457 66.9088L399.175 97.776L454.533 186.23L352.81 162.839L339.754 219.619L441.477 243.01L353.043 298.399L383.893 347.692L472.327 292.303L494.6 195.443L591.426 217.707L679.86 162.318L649.01 113.025Z" fill="white"/>
<path d="M704.291 258.169L505.963 212.565L483.691 309.425L460.292 411.184L517.053 424.236L540.451 322.477L575.072 377.795L671.676 400.008L684.681 343.45L611.449 326.611L589.734 291.61L691.235 314.949L704.291 258.169Z" fill="white"/>
<g clip-path="url(#clip1_3262_672)">
<path d="M759.216 652.175C724.864 637.739 677.697 637.815 639.7 652.862C599.403 668.812 572.793 657.298 551.322 637.116C538.753 625.302 514.411 589.438 531.238 554.327C550.763 513.576 595.694 507.142 601.715 446.468C607.435 388.811 626.315 357.685 665.354 360.681C698.931 363.259 725.961 393.215 744.884 444.062C755.184 471.719 780.332 492.084 811.533 504.157C854.475 520.772 886.924 549.858 885.892 590.673C884.86 631.51 853.691 691.894 759.216 652.175Z" fill="#FD5A4B"/>
<path opacity="0.75" d="M560.751 655.032C556.397 635.849 561.3 615.678 575.481 607.053C586.813 600.158 605.091 602.864 615.864 624.013C626.637 645.161 637.174 648.974 656.753 649.726C676.332 650.489 697.921 667.62 683.675 693.183C670.225 717.318 641.507 720.411 626.498 718.317C611.488 716.233 571.449 702.173 560.751 655.032Z" fill="#FFCD55"/>
<path d="M777.246 661.831L790.933 648.158C791.202 647.889 791.202 647.46 790.933 647.191C790.664 646.923 790.234 646.923 789.966 647.191L776.279 660.864C776.01 661.133 776.01 661.562 776.279 661.831C776.548 662.099 776.978 662.099 777.246 661.831Z" fill="#3B1882"/>
<path d="M779.074 655.129L784.213 649.995C784.482 649.726 784.482 649.297 784.213 649.028C783.945 648.76 783.514 648.76 783.246 649.028L778.106 654.162C777.838 654.431 777.838 654.86 778.106 655.129C778.375 655.387 778.816 655.387 779.074 655.129Z" fill="#3B1882"/>
<path d="M777.246 666.707L795.814 648.158C796.083 647.889 796.083 647.46 795.814 647.191C795.546 646.923 795.116 646.923 794.847 647.191L776.279 665.74C776.01 666.009 776.01 666.439 776.279 666.707C776.548 666.976 776.978 666.976 777.246 666.707Z" fill="#3B1882"/>
<path d="M778.268 670.563L799.674 649.178C799.943 648.91 799.943 648.48 799.674 648.212C799.406 647.943 798.976 647.943 798.707 648.212L777.3 669.596C777.031 669.865 777.031 670.295 777.3 670.563C777.569 670.832 777.999 670.832 778.268 670.563Z" fill="#3B1882"/>
<path d="M779.934 673.774L802.878 650.854C803.147 650.585 803.147 650.155 802.878 649.887C802.61 649.618 802.18 649.618 801.911 649.887L778.967 672.808C778.698 673.076 778.698 673.506 778.967 673.774C779.236 674.043 779.666 674.043 779.934 673.774Z" fill="#3B1882"/>
<path d="M782.128 676.46L805.566 653.045C805.835 652.776 805.835 652.347 805.566 652.078C805.298 651.81 804.867 651.81 804.599 652.078L781.16 675.493C780.891 675.762 780.891 676.191 781.16 676.46C781.429 676.728 781.87 676.728 782.128 676.46Z" fill="#3B1882"/>
<path d="M784.826 678.651L807.77 655.73C808.039 655.462 808.039 655.032 807.77 654.763C807.502 654.495 807.072 654.495 806.803 654.763L783.859 677.684C783.59 677.953 783.59 678.382 783.859 678.651C784.117 678.919 784.558 678.919 784.826 678.651Z" fill="#3B1882"/>
<path d="M788.03 680.326L809.437 658.941C809.705 658.673 809.705 658.243 809.437 657.975C809.168 657.706 808.738 657.706 808.469 657.975L787.062 679.36C786.794 679.628 786.794 680.058 787.062 680.326C787.331 680.595 787.761 680.595 788.03 680.326Z" fill="#3B1882"/>
<path d="M791.89 681.336L810.458 662.787C810.727 662.518 810.727 662.089 810.458 661.82C810.189 661.552 809.759 661.552 809.49 661.82L790.922 680.369C790.654 680.638 790.654 681.068 790.922 681.336C791.191 681.605 791.632 681.605 791.89 681.336Z" fill="#3B1882"/>
<path d="M796.782 681.336L810.469 667.663C810.738 667.395 810.738 666.965 810.469 666.697C810.2 666.428 809.77 666.428 809.501 666.697L795.814 680.369C795.546 680.638 795.546 681.068 795.814 681.336C796.072 681.605 796.513 681.605 796.782 681.336Z" fill="#3B1882"/>
<path d="M803.491 679.51L808.63 674.376C808.899 674.108 808.899 673.678 808.63 673.409C808.362 673.141 807.931 673.141 807.663 673.409L802.523 678.543C802.255 678.812 802.255 679.242 802.523 679.51C802.792 679.779 803.222 679.779 803.491 679.51Z" fill="#3B1882"/>
<path d="M734.863 684.387C734.863 684.387 735.852 687.652 727.724 690.477L728.627 685.031L734.863 684.387Z" fill="#02394F" stroke="#02394F" stroke-width="0.5" stroke-miterlimit="10" stroke-linecap="round" stroke-linejoin="round"/>
<path d="M728.627 685.031L726.359 698.768L699.985 697.458L700.608 684.354L724.23 682.195L728.627 685.031Z" fill="white" stroke="#02394F" stroke-width="0.5" stroke-miterlimit="10" stroke-linecap="round" stroke-linejoin="round"/>
<path d="M657 685.031L659.269 698.768L686.341 698.521L685.019 684.354L661.397 682.195L657 685.031Z" fill="white" stroke="#02394F" stroke-width="0.5" stroke-miterlimit="10" stroke-linecap="round" stroke-linejoin="round"/>
<path d="M632.153 546.454C633.088 555.315 643.098 648.416 653.785 685.031H685.019L685.857 591.35C685.868 590.512 687.094 590.426 687.212 591.264L700.512 685.042L734.906 684.795C734.906 684.795 739.444 584.723 739.551 537.389C739.551 536.991 739.207 536.69 738.82 536.723L632.776 545.723C632.389 545.745 632.11 546.078 632.153 546.454Z" fill="#5353F2" stroke="#02394F" stroke-width="0.5" stroke-miterlimit="10"/>
<path d="M721.65 334.463C722.273 337.17 723.262 339.833 724.843 342.132C725.434 342.991 726.111 343.807 726.853 344.538C728.283 345.934 730.025 346.826 731.251 348.469C733.304 351.219 734.24 354.86 734.917 358.179C734.949 358.318 734.96 358.479 735.003 358.619C738.293 378.522 738.97 411.356 710.221 419.498C702.662 421.635 694.985 424.589 688.782 429.529C682.686 434.384 678.138 442.053 679.406 450.066C679.74 452.214 680.406 454.126 681.342 455.823C686.04 464.405 697.448 467.444 706.984 468.003C732.186 469.474 751.217 452.225 758.366 428.982C769.946 391.368 751.614 363.925 739.927 351.111C738.788 343.142 736.283 338.963 734.455 336.901C733.982 336.364 733.132 336.88 733.369 337.556C734.068 339.629 734.347 341.552 734.444 343.013C734.476 343.56 733.713 343.732 733.498 343.217C729.95 334.796 726.499 332.401 724.176 331.907C722.66 331.584 721.305 332.959 721.65 334.463Z" fill="white" stroke="#02394F" stroke-width="0.5" stroke-miterlimit="10" stroke-linecap="round" stroke-linejoin="round"/>
<path d="M758.313 439.82C758.313 439.82 758.044 440.281 757.506 440.41C757.506 440.41 755.614 440.98 753.646 440.357C749.701 439.111 730.831 432.408 719.542 415.438C716.844 417.114 713.758 418.499 710.221 419.498C702.662 421.635 694.985 424.589 688.792 429.53C682.696 434.385 678.148 442.054 679.417 450.066C679.75 452.214 680.417 454.126 681.352 455.823C686.051 464.405 697.458 467.445 706.995 468.003C714.984 468.476 722.348 467.047 728.907 464.158C729.036 464.126 751.883 457.767 758.313 439.82Z" fill="#FFC600" stroke="#02394F" stroke-width="0.5" stroke-miterlimit="10"/>
<path d="M753.646 440.367C753.646 440.367 762.538 442.193 755.808 435.899L753.646 440.367Z" fill="#02394F" stroke="#02394F" stroke-width="0.5" stroke-miterlimit="10" stroke-linecap="round" stroke-linejoin="round"/>
<path d="M644.27 329.19C643.614 332.025 642.582 334.818 640.926 337.235C640.303 338.137 639.604 338.985 638.819 339.759C637.324 341.23 635.497 342.154 634.206 343.883C632.056 346.772 631.067 350.585 630.368 354.065C630.336 354.216 630.325 354.388 630.282 354.527C626.831 375.407 626.121 409.842 656.269 418.381C664.193 420.626 672.246 423.719 678.751 428.896C685.148 433.998 689.911 442.032 688.588 450.431C688.234 452.687 687.535 454.696 686.556 456.468C681.632 465.468 669.665 468.658 659.666 469.249C633.239 470.796 613.273 452.698 605.768 428.316C593.63 388.865 612.854 360.08 625.111 346.643C626.304 338.287 628.938 333.894 630.852 331.735C631.347 331.177 632.239 331.714 631.992 332.423C631.261 334.592 630.97 336.622 630.863 338.148C630.82 338.728 631.626 338.899 631.852 338.362C635.572 329.533 639.185 327.02 641.636 326.505C643.227 326.182 644.636 327.622 644.27 329.19Z" fill="white" stroke="#02394F" stroke-width="0.5" stroke-miterlimit="10" stroke-linecap="round" stroke-linejoin="round"/>
<path d="M605.822 439.701C605.822 439.701 606.101 440.185 606.66 440.324C606.66 440.324 608.649 440.915 610.703 440.27C614.842 438.96 634.636 431.936 646.474 414.127C649.301 415.889 652.538 417.339 656.247 418.381C664.171 420.626 672.224 423.719 678.729 428.896C685.126 433.998 689.889 442.032 688.567 450.431C688.212 452.687 687.513 454.695 686.534 456.468C681.61 465.468 669.644 468.658 659.645 469.249C651.269 469.743 643.539 468.25 636.658 465.221C636.529 465.189 612.563 458.53 605.822 439.701Z" fill="#FFC600" stroke="#02394F" stroke-width="0.5" stroke-miterlimit="10"/>
<path d="M610.714 440.27C610.714 440.27 601.392 442.182 608.445 435.587L610.714 440.27Z" fill="#02394F" stroke="#02394F" stroke-width="0.5" stroke-miterlimit="10" stroke-linecap="round" stroke-linejoin="round"/>
<path d="M647.528 447.359C647.528 447.359 638.131 462.665 630.099 462.772L641.378 467.079L647.528 447.359Z" fill="#02394F"/>
<path d="M658.892 416.276C658.892 416.276 660.935 441.753 687.244 410.4C687.244 410.4 758.151 432.945 739.207 549.193C739.207 549.193 679.191 589.76 633.765 547.689C610.703 526.315 658.892 416.276 658.892 416.276Z" fill="#FFC600" stroke="#02394F" stroke-width="0.5" stroke-miterlimit="10"/>
<path d="M653.892 450.968C655.015 450.968 655.924 450.059 655.924 448.938C655.924 447.817 655.015 446.908 653.892 446.908C652.77 446.908 651.86 447.817 651.86 448.938C651.86 450.059 652.77 450.968 653.892 450.968Z" fill="#02394F" stroke="#02394F" stroke-width="0.5" stroke-miterlimit="10" stroke-linecap="round" stroke-linejoin="round"/>
<path d="M642.119 514.457C643.242 514.457 644.152 513.548 644.152 512.427C644.152 511.306 643.242 510.397 642.119 510.397C640.997 510.397 640.087 511.306 640.087 512.427C640.087 513.548 640.997 514.457 642.119 514.457Z" fill="#02394F" stroke="#02394F" stroke-width="0.5" stroke-miterlimit="10" stroke-linecap="round" stroke-linejoin="round"/>
<path d="M646.452 483.384C647.575 483.384 648.485 482.475 648.485 481.354C648.485 480.233 647.575 479.324 646.452 479.324C645.33 479.324 644.42 480.233 644.42 481.354C644.42 482.475 645.33 483.384 646.452 483.384Z" fill="#02394F" stroke="#02394F" stroke-width="0.5" stroke-miterlimit="10" stroke-linecap="round" stroke-linejoin="round"/>
<path d="M654.591 368.576C654.591 368.576 628.078 355.225 645.603 350.628C663.128 346.031 678.697 362.013 678.697 362.013C678.697 362.013 676.062 353.474 681.546 354.57C687.029 355.665 690.093 363.764 683.954 374.494C683.954 374.483 660.505 359.382 654.591 368.576Z" fill="#02394F" stroke="#01394F" stroke-width="0.5" stroke-miterlimit="10"/>
<path d="M658.892 408.671V409.391V416.265C661.107 433.353 682.696 417.178 682.696 417.178V393.731C682.696 393.731 690.567 387.361 690.104 381.841C689.653 376.32 683.944 379.241 683.944 379.241V374.472L675.127 369.661C658.946 360.885 654.581 367.663 654.581 367.663C654.581 367.663 654.946 383.828 651.549 394.858C648.151 405.889 653.527 410.701 664.859 407.876C676.192 405.051 677.751 398.338 677.751 398.338" fill="white"/>
<path d="M658.892 408.671V409.391V416.265C661.107 433.353 682.696 417.178 682.696 417.178V393.731C682.696 393.731 690.567 387.361 690.104 381.841C689.653 376.32 683.944 379.241 683.944 379.241V374.472L675.127 369.661C658.946 360.885 654.581 367.663 654.581 367.663C654.581 367.663 654.946 383.828 651.549 394.858C648.151 405.889 653.527 410.701 664.859 407.876C676.192 405.051 677.751 398.338 677.751 398.338" stroke="#02394F" stroke-width="0.5" stroke-miterlimit="10" stroke-linecap="round" stroke-linejoin="round"/>
<path d="M654.398 376.717C654.398 376.717 636.905 366.728 648.882 365.278L654.581 368.576L654.398 376.717Z" fill="#02394F"/>
<path d="M676.891 359.371C676.891 359.371 679.009 362.056 679.278 362.926" stroke="white" stroke-width="0.5" stroke-miterlimit="10" stroke-linecap="round"/>
<path d="M677.664 398.983C677.664 398.983 674.536 410.529 658.892 413.655V408.671C658.892 408.671 672.052 409.036 677.664 398.983Z" fill="#02394F"/>
<path d="M669.719 373.474C669.719 373.474 665.902 371.164 662.375 372.163Z" fill="white"/>
<path d="M669.719 373.474C669.719 373.474 665.902 371.164 662.375 372.163" stroke="#01394F" stroke-width="0.5" stroke-miterlimit="10" stroke-linecap="round" stroke-linejoin="round"/>
<path d="M652.333 378.49C652.333 378.49 654.817 374.784 658.44 374.204Z" fill="white"/>
<path d="M652.333 378.49C652.333 378.49 654.817 374.784 658.44 374.204" stroke="#01394F" stroke-width="0.5" stroke-miterlimit="10" stroke-linecap="round" stroke-linejoin="round"/>
<path d="M654.807 394.128V400.293C654.807 400.293 655.549 404.074 659.828 403.172C664.107 402.28 662.215 393.806 654.807 394.128Z" fill="#02394F" stroke="#01394F" stroke-width="0.5" stroke-miterlimit="10"/>
<path d="M659.613 395.492H654.796V394.128C654.807 394.128 657.441 393.849 659.613 395.492Z" fill="white" stroke="#02394F" stroke-width="0.5" stroke-miterlimit="10" stroke-linecap="round" stroke-linejoin="round"/>
<path d="M662.042 399.563C662.042 399.563 657.053 398.919 655.172 401.292C655.172 401.292 656.29 403.913 659.817 403.172C659.827 403.183 662.375 402.742 662.042 399.563Z" fill="#EFA4EC" stroke="#01394F" stroke-width="0.5" stroke-miterlimit="10"/>
<path d="M656.763 377.695C657.114 377.695 657.398 377.411 657.398 377.061C657.398 376.711 657.114 376.427 656.763 376.427C656.413 376.427 656.129 376.711 656.129 377.061C656.129 377.411 656.413 377.695 656.763 377.695Z" fill="#01394F"/>
<path d="M658.903 379.499C657.355 379.617 655.957 380.562 656.634 382.313C657.086 383.484 658.462 384.15 659.484 383.269" fill="white"/>
<path d="M658.903 379.499C657.355 379.617 655.957 380.562 656.634 382.313C657.086 383.484 658.462 384.15 659.484 383.269" stroke="#01394F" stroke-width="0.5" stroke-miterlimit="10" stroke-linecap="round" stroke-linejoin="round"/>
<path d="M682.202 383.602C682.245 383.559 682.965 383.559 683.212 383.613C684.051 383.785 685.019 384.408 685.18 385.31C685.459 386.867 684.019 388.113 683.051 389.112C682.062 390.122 679.202 393.054 679.202 393.054L678.245 392.12L682.664 387.598C682.664 387.598 680.707 387.061 681.03 384.816C681.019 384.816 682.202 383.613 682.202 383.602Z" fill="#E0E2E2" stroke="#02394F" stroke-width="0.5" stroke-miterlimit="10" stroke-linecap="round" stroke-linejoin="round"/>
<path d="M678.234 392.12C678.234 392.12 678.385 392.99 679.191 393.054L678.234 392.12Z" stroke="#02394F" stroke-width="0.5" stroke-miterlimit="10" stroke-linecap="round" stroke-linejoin="round"/>
<path d="M686.276 381.927C686.276 381.927 679.6 382.689 679.6 389.112" stroke="#02394F" stroke-width="0.5" stroke-miterlimit="10" stroke-linecap="round" stroke-linejoin="round"/>
<path d="M690.126 406.319C690.126 406.319 685.997 404.826 682.696 406.319L682.847 411.163C682.847 411.163 688.319 408.456 690.126 406.319Z" fill="#02394F" stroke="#01394F" stroke-width="0.5" stroke-miterlimit="10" stroke-linecap="round" stroke-linejoin="round"/>
<path d="M701.06 417.704C703.092 413.655 690.126 406.319 690.126 406.319C678.503 416.78 657.161 419.981 657.161 419.981L651.172 435.201C651.183 435.201 695.093 429.573 701.06 417.704Z" fill="#EAAE06" stroke="#02394F" stroke-width="0.5" stroke-miterlimit="10"/>
<path d="M658.892 409.391C658.892 409.391 645.431 416.48 653.635 428.96L658.892 416.275V409.391Z" fill="#EAAE06" stroke="#02394F" stroke-width="0.5" stroke-miterlimit="10"/>
<path d="M658.892 416.275L657.172 419.981L659.688 419.53C659.677 419.53 658.892 417.543 658.892 416.275Z" fill="#02394F"/>
<path d="M719.51 462.558C719.51 462.558 728.444 465.082 734.562 462.096Z" fill="#FFC600"/>
<path d="M719.51 462.558C719.51 462.558 728.444 465.082 734.562 462.096" stroke="#02394F" stroke-width="0.5" stroke-miterlimit="10" stroke-linecap="round" stroke-linejoin="round"/>
<path d="M705.2 421.184L705.963 420.969L733.38 443.181L736.24 451.43L734.476 461.956L734.197 462.096L733.745 461.956L724.811 456.081L701.899 429.938L705.2 421.184Z" fill="#FFC600"/>
<path d="M737.734 472.826C737.734 472.826 732.068 465.672 726.531 463.556C726.531 463.556 731.993 463.599 734.562 462.096L737.734 472.826Z" fill="#02394F"/>
<path d="M705.468 420.969C705.468 420.969 698.415 424.116 697.372 430.335Z" fill="#FFC600"/>
<path d="M705.468 420.969C705.468 420.969 698.415 424.116 697.372 430.335" stroke="#02394F" stroke-width="0.5" stroke-miterlimit="10" stroke-linecap="round" stroke-linejoin="round"/>
<path d="M634.206 343.894C634.206 343.894 629.927 348.136 627.745 348.534" stroke="#02394F" stroke-width="0.5" stroke-miterlimit="10" stroke-linecap="round" stroke-linejoin="round"/>
<path d="M739.917 351.101C739.917 351.101 737.53 348.877 736.831 348.706" stroke="#02394F" stroke-width="0.5" stroke-miterlimit="10" stroke-linecap="round" stroke-linejoin="round"/>
<path d="M749.206 372.818C749.206 372.818 763.108 402.903 750.776 424.116Z" fill="white"/>
<path d="M749.206 372.818C749.206 372.818 763.108 402.903 750.776 424.116" stroke="#02394F" stroke-width="0.5" stroke-miterlimit="10" stroke-linecap="round" stroke-linejoin="round"/>
<path d="M677.288 395.278C677.288 395.278 679.008 397.028 682.696 393.742" stroke="#01394F" stroke-width="0.5" stroke-miterlimit="10"/>
<path d="M735.379 518.85C735.379 518.85 731.046 554.37 694.416 553.65" stroke="#02394F" stroke-width="0.5" stroke-miterlimit="10"/>
<path d="M601.349 728.843C599.833 728.843 600.801 721.109 600.951 720.046C602.36 710.175 612.112 702.915 620.756 699.209C633.873 693.592 647.485 694.236 661.365 694.945C669.525 695.364 677.686 695.783 685.847 696.202C686.083 696.212 686.309 696.223 686.545 696.234L686.072 728.445C686.072 728.445 601.865 728.843 601.349 728.843Z" fill="#FFC600" stroke="#02394F" stroke-width="0.5" stroke-miterlimit="10"/>
<path d="M600.511 726.308L686.105 726.082L686.072 728.445L601.349 728.842C601.349 728.842 600.178 729.337 600.511 726.308Z" fill="#C9C9C9" stroke="#02394F" stroke-width="0.5" stroke-miterlimit="10"/>
<path d="M644.528 701.872C646.018 701.872 647.226 700.665 647.226 699.176C647.226 697.687 646.018 696.48 644.528 696.48C643.037 696.48 641.829 697.687 641.829 699.176C641.829 700.665 643.037 701.872 644.528 701.872Z" fill="#FFC600" stroke="#02394F" stroke-width="0.5" stroke-miterlimit="10"/>
<path d="M633.443 703.183C634.933 703.183 636.141 701.976 636.141 700.487C636.141 698.998 634.933 697.791 633.443 697.791C631.952 697.791 630.744 698.998 630.744 700.487C630.744 701.976 631.952 703.183 633.443 703.183Z" fill="#FFC600" stroke="#02394F" stroke-width="0.5" stroke-miterlimit="10"/>
<path d="M622.315 706.641C623.805 706.641 625.014 705.434 625.014 703.945C625.014 702.457 623.805 701.25 622.315 701.25C620.824 701.25 619.616 702.457 619.616 703.945C619.616 705.434 620.824 706.641 622.315 706.641Z" fill="#FFC600" stroke="#02394F" stroke-width="0.5" stroke-miterlimit="10"/>
<path d="M633.518 700.444L634.056 700.283C634.594 700.122 634.905 699.552 634.755 699.015L632.626 691.733C632.465 691.196 631.895 690.885 631.357 691.035L630.82 691.196C630.282 691.357 629.97 691.926 630.121 692.463L632.25 699.746C632.4 700.293 632.97 700.605 633.518 700.444Z" fill="#EFEFEF" stroke="#02394F" stroke-width="0.5" stroke-miterlimit="10"/>
<path d="M644.162 698.919C644.259 698.919 644.366 698.897 644.463 698.865C645.044 698.682 645.377 698.07 645.194 697.479L643.539 692.109C643.41 691.679 643.281 691.185 643.152 690.659C642.582 688.35 641.872 685.482 639.636 684.419C638.604 683.935 637.356 683.742 635.84 683.86L635.582 683.882C635.142 683.914 634.722 683.946 634.41 683.86C632.206 683.259 631.303 678.834 630.873 676.696L630.841 676.535C630.443 674.602 630.174 672.658 630.045 670.767C630.002 670.155 629.454 669.682 628.863 669.736C628.25 669.779 627.787 670.305 627.83 670.918C627.97 672.905 628.25 674.945 628.669 676.975L628.701 677.136C629.271 679.897 630.314 685.031 633.83 685.987C634.518 686.169 635.185 686.116 635.765 686.073L636.002 686.051C637.12 685.965 638.012 686.084 638.69 686.395C639.98 687.007 640.55 689.317 641.012 691.164C641.152 691.733 641.291 692.27 641.431 692.732L643.087 698.102C643.238 698.629 643.678 698.929 644.162 698.919Z" fill="#EFEFEF" stroke="#02394F" stroke-width="0.5" stroke-miterlimit="10"/>
<path d="M622.035 704.697L622.573 704.536C623.111 704.375 623.422 703.806 623.272 703.269L621.143 695.986C620.982 695.449 620.412 695.138 619.874 695.288L619.337 695.449C618.799 695.611 618.487 696.18 618.638 696.717L620.767 703.999C620.928 704.547 621.498 704.858 622.035 704.697Z" fill="#EFEFEF" stroke="#02394F" stroke-width="0.5" stroke-miterlimit="10"/>
<path d="M678.557 721.808C679.786 721.808 680.782 720.812 680.782 719.584C680.782 718.356 679.786 717.361 678.557 717.361C677.327 717.361 676.331 718.356 676.331 719.584C676.331 720.812 677.327 721.808 678.557 721.808Z" fill="#02394F" stroke="#02394F" stroke-width="0.5" stroke-miterlimit="10" stroke-linecap="round" stroke-linejoin="round"/>
<path d="M653.785 685.031C653.785 685.031 653.957 686.556 657.72 689.349L657.011 685.031H653.785Z" fill="#01394F" stroke="#02394F" stroke-width="0.5" stroke-miterlimit="10"/>
<path d="M725.725 580.438L724.101 685.031" stroke="#02394F" stroke-width="0.5" stroke-miterlimit="10"/>
<path d="M647.882 581.222L660.795 685.031" stroke="#02394F" stroke-width="0.5" stroke-miterlimit="10"/>
<path d="M784.837 728.338C786.353 728.327 785.342 720.604 785.181 719.541C783.719 709.681 773.913 702.474 765.247 698.822C752.098 693.28 738.497 694.01 724.617 694.816C716.456 695.288 700.178 696.223 699.953 696.233L700.125 728.477C700.114 728.466 784.321 728.338 784.837 728.338Z" fill="#FFC600" stroke="#02394F" stroke-width="0.5" stroke-miterlimit="10"/>
<path d="M785.654 725.792L700.06 726.103L700.114 728.466L784.837 728.338C784.837 728.338 786.009 728.81 785.654 725.792Z" fill="#C9C9C9" stroke="#02394F" stroke-width="0.5" stroke-miterlimit="10"/>
<path d="M741.476 701.636C742.966 701.636 744.174 700.429 744.174 698.94C744.174 697.451 742.966 696.244 741.476 696.244C739.985 696.244 738.777 697.451 738.777 698.94C738.777 700.429 739.985 701.636 741.476 701.636Z" fill="#FFC600" stroke="#02394F" stroke-width="0.5" stroke-miterlimit="10"/>
<path d="M752.56 702.871C754.051 702.871 755.259 701.664 755.259 700.175C755.259 698.687 754.051 697.479 752.56 697.479C751.07 697.479 749.862 698.687 749.862 700.175C749.862 701.664 751.07 702.871 752.56 702.871Z" fill="#FFC600" stroke="#02394F" stroke-width="0.5" stroke-miterlimit="10"/>
<path d="M763.71 706.265C765.2 706.265 766.409 705.058 766.409 703.569C766.409 702.081 765.2 700.874 763.71 700.874C762.219 700.874 761.011 702.081 761.011 703.569C761.011 705.058 762.219 706.265 763.71 706.265Z" fill="#FFC600" stroke="#02394F" stroke-width="0.5" stroke-miterlimit="10"/>
<path d="M752.496 700.132L751.958 699.982C751.421 699.831 751.098 699.262 751.259 698.714L753.345 691.421C753.496 690.884 754.066 690.562 754.614 690.723L755.151 690.874C755.689 691.024 756.012 691.593 755.85 692.141L753.765 699.434C753.603 699.971 753.033 700.283 752.496 700.132Z" fill="#EFEFEF" stroke="#02394F" stroke-width="0.5" stroke-miterlimit="10"/>
<path d="M741.83 698.672C741.734 698.672 741.626 698.65 741.518 698.629C740.927 698.457 740.605 697.834 740.777 697.254L742.4 691.873C742.529 691.443 742.647 690.949 742.776 690.423C743.335 688.114 744.024 685.235 746.26 684.161C747.281 683.667 748.529 683.474 750.055 683.581L750.313 683.602C750.754 683.635 751.173 683.667 751.485 683.581C753.679 682.969 754.56 678.533 754.98 676.395L755.012 676.234C755.399 674.301 755.657 672.357 755.775 670.466C755.818 669.854 756.356 669.382 756.947 669.435C757.56 669.478 758.022 670.005 757.979 670.606C757.85 672.593 757.581 674.634 757.184 676.664L757.151 676.825C756.603 679.585 755.582 684.73 752.077 685.708C751.388 685.901 750.722 685.847 750.141 685.804L749.905 685.783C748.776 685.708 747.894 685.826 747.217 686.148C745.937 686.76 745.378 689.08 744.927 690.928C744.787 691.497 744.658 692.034 744.518 692.496L742.895 697.877C742.755 698.371 742.314 698.682 741.83 698.672Z" fill="#EFEFEF" stroke="#02394F" stroke-width="0.5" stroke-miterlimit="10"/>
<path d="M764 704.311L763.463 704.16C762.925 704.01 762.603 703.441 762.764 702.893L764.85 695.6C765 695.063 765.57 694.741 766.118 694.902L766.656 695.052C767.193 695.203 767.516 695.772 767.355 696.32L765.269 703.613C765.108 704.15 764.538 704.472 764 704.311Z" fill="#EFEFEF" stroke="#02394F" stroke-width="0.5" stroke-miterlimit="10"/>
<path d="M707.565 721.775C708.794 721.775 709.791 720.78 709.791 719.552C709.791 718.324 708.794 717.329 707.565 717.329C706.336 717.329 705.339 718.324 705.339 719.552C705.339 720.78 706.336 721.775 707.565 721.775Z" fill="#02394F" stroke="#02394F" stroke-width="0.5" stroke-miterlimit="10" stroke-linecap="round" stroke-linejoin="round"/>
<path d="M815.598 285.043L547.854 278.89L546.598 333.458L814.341 339.612L815.598 285.043Z" fill="white" stroke="#02394F" stroke-width="0.5" stroke-miterlimit="10" stroke-linecap="round" stroke-linejoin="round"/>
<path d="M631.347 335.215C631.572 334.259 631.809 333.303 631.992 332.337C632.174 331.381 632.551 330.457 632.712 329.501C632.819 328.9 632.303 327.954 631.626 328.696C629.798 330.715 627.325 334.721 625.981 342.175C627.39 341.735 628.841 341.38 630.304 341.069C630.422 339.093 630.884 337.159 631.347 335.215Z" fill="white" stroke="#02394F" stroke-width="0.5" stroke-miterlimit="10" stroke-linecap="round" stroke-linejoin="round"/>
<path d="M626.035 342.519L626.207 341.735L629.003 339.447L630.54 338.126L630.82 338.523L630.906 340.672V341.703L627.411 342.616L626.035 342.519Z" fill="white"/>
<path d="M735.369 338.051C735.369 338.051 734.616 336.472 733.81 336.547C733.003 336.622 733.627 338.384 733.627 338.384" fill="white"/>
<path d="M735.369 338.051C735.369 338.051 734.616 336.472 733.81 336.547C733.003 336.622 733.627 338.384 733.627 338.384" stroke="#02394F" stroke-width="0.5" stroke-miterlimit="10" stroke-linecap="round" stroke-linejoin="round"/>
<path d="M683.599 387.243C683.599 387.243 683.202 387.576 682.664 387.598Z" fill="white"/>
<path d="M683.599 387.243C683.599 387.243 683.202 387.576 682.664 387.598" stroke="#02394F" stroke-width="0.5" stroke-miterlimit="10" stroke-linecap="round" stroke-linejoin="round"/>
<path d="M682.61 386.459C682.723 386.459 682.814 386.368 682.814 386.255C682.814 386.143 682.723 386.051 682.61 386.051C682.497 386.051 682.406 386.143 682.406 386.255C682.406 386.368 682.497 386.459 682.61 386.459Z" fill="#02394F"/>
<path d="M687.599 554.391C688.145 554.391 688.588 553.948 688.588 553.403C688.588 552.857 688.145 552.415 687.599 552.415C687.053 552.415 686.61 552.857 686.61 553.403C686.61 553.948 687.053 554.391 687.599 554.391Z" fill="#02394F" stroke="#02394F" stroke-width="0.5" stroke-miterlimit="10" stroke-linecap="round" stroke-linejoin="round"/>
<path d="M725.767 573.262C726.314 573.262 726.757 572.82 726.757 572.274C726.757 571.729 726.314 571.286 725.767 571.286C725.221 571.286 724.778 571.729 724.778 572.274C724.778 572.82 725.221 573.262 725.767 573.262Z" fill="#02394F" stroke="#02394F" stroke-width="0.5" stroke-miterlimit="10" stroke-linecap="round" stroke-linejoin="round"/>
<path d="M693.072 566.098C693.072 566.098 728.681 561.909 739.39 553.661L739.218 549.182C739.207 549.182 711.425 565.808 693.072 566.098Z" fill="#02394F"/>
<path d="M650.334 437.403L663.397 433.182L651.183 435.201L650.334 437.403Z" fill="#02394F"/>
<path d="M671.267 376.234L647.689 375.525C647.689 375.525 649.259 386.32 658.226 379.371C658.226 379.381 665.558 388.328 671.267 376.234Z" fill="#02394F" stroke="#02394F" stroke-width="0.1837" stroke-miterlimit="10" stroke-linecap="round" stroke-linejoin="round"/>
<path d="M663.29 376.331L665.795 381.615L663.892 381.895L660.946 376.32L663.29 376.331Z" fill="white"/>
<path d="M652.527 376.095L654.903 380.874L652.989 381.24L650.183 376.084L652.527 376.095Z" fill="white"/>
<path d="M653.989 376.073L656.172 380.477L655.634 380.713L653.323 376.041L653.989 376.073Z" fill="white"/>
<path d="M664.849 376.567L667.117 381.154L666.58 381.39L664.182 376.535L664.849 376.567Z" fill="white"/>
<path d="M573.879 291.221L583.308 291.414C587.727 291.511 589.888 293.906 589.791 298.6C589.759 300.307 589.318 301.725 588.49 302.842C587.663 303.959 586.706 304.668 585.63 304.947C586.845 305.259 587.985 305.946 589.039 307.031C590.092 308.116 590.598 309.706 590.555 311.789C590.49 314.7 589.813 316.719 588.533 317.836C587.243 318.953 585.394 319.49 582.996 319.447L573.298 319.243L573.879 291.221ZM583.297 304.518C584.91 304.55 586.233 303.991 587.265 302.842C588.297 301.693 588.834 300.136 588.877 298.159C588.964 294.303 587.093 292.338 583.287 292.263L574.782 292.08L574.524 304.335L583.297 304.518ZM583.007 318.61C585.125 318.653 586.749 318.191 587.867 317.213C588.985 316.236 589.576 314.399 589.63 311.693C589.652 310.414 589.394 309.308 588.834 308.363C588.275 307.418 587.512 306.687 586.544 306.172C585.566 305.656 584.48 305.377 583.287 305.356L574.513 305.173L574.234 318.416L583.007 318.61Z" fill="#02394F"/>
<path d="M596.253 295.077C596.167 294.991 596.124 294.873 596.124 294.744L596.178 292.37C596.189 292.059 596.339 291.919 596.651 291.919L597.07 291.93C597.35 291.94 597.49 292.091 597.479 292.402L597.425 294.776C597.415 295.087 597.275 295.238 596.995 295.227L596.576 295.216C596.447 295.216 596.339 295.173 596.253 295.077ZM596.21 299.384L597.135 299.405L596.705 319.738L595.78 319.716L596.21 299.384Z" fill="#02394F"/>
<path d="M604.113 299.555L604.726 299.566L604.951 303.444C606.134 302.165 607.381 301.188 608.693 300.501C610.015 299.813 611.445 299.491 613.004 299.523C613.843 299.545 614.531 299.631 615.069 299.792L615.047 300.715C614.284 300.544 613.596 300.458 612.983 300.447C611.445 300.415 610.112 300.683 608.972 301.242C607.833 301.8 606.489 302.745 604.93 304.067L604.597 319.92L603.672 319.898L604.113 299.555Z" fill="#02394F"/>
<path d="M626.831 320.371C626.089 320.328 625.304 320.017 624.487 319.437C623.67 318.857 622.982 317.729 622.433 316.064L617.025 299.824L618.025 299.846L623.358 315.86C623.745 317.042 624.218 317.901 624.777 318.416C625.347 318.943 625.874 319.254 626.39 319.372C626.895 319.491 627.153 319.501 627.153 319.426L634.121 300.189L635.077 300.211L625.992 325.645L624.186 329.404L623.724 329.394L626.831 320.371Z" fill="#02394F"/>
<path d="M639.088 319.512C638.163 318.599 637.712 317.353 637.744 315.763L637.765 314.582C637.798 312.928 638.357 311.617 639.421 310.672C640.485 309.727 642.001 309.276 643.98 309.308L652.259 309.48L652.334 306.075C652.366 304.442 651.957 303.186 651.087 302.294C650.226 301.403 648.689 300.941 646.496 300.898L639.98 300.758L639.991 300.146L641.066 300.125C643.55 300.049 645.431 300.028 646.7 300.049C649.055 300.103 650.743 300.629 651.764 301.628C652.796 302.627 653.28 304.12 653.248 306.086L652.936 320.908L652.323 320.897L652.065 318.438C652.011 318.459 650.99 318.889 649.012 319.737C647.022 320.575 644.937 320.972 642.733 320.929C641.227 320.897 640.012 320.435 639.088 319.512ZM646.334 319.555C647.7 319.222 648.915 318.889 650.001 318.534C651.087 318.191 651.775 317.954 652.087 317.836L652.248 310.103L643.732 310.189C641.991 310.199 640.722 310.608 639.926 311.413C639.131 312.219 638.722 313.282 638.69 314.603L638.668 315.602C638.636 317.106 639.045 318.212 639.905 318.921C640.754 319.63 641.765 319.995 642.915 320.016C643.829 320.038 644.969 319.888 646.334 319.555Z" fill="#02394F"/>
<path d="M660.183 300.726L660.72 300.737L661.053 303.121C662.301 302.327 663.634 301.704 665.064 301.231C666.494 300.758 667.934 300.544 669.397 300.576C670.698 300.608 671.816 300.93 672.751 301.543C673.687 302.166 674.385 302.982 674.869 303.981C675.342 304.99 675.568 306.064 675.547 307.214L675.246 321.381L674.321 321.359L674.622 307.192C674.654 305.581 674.203 304.228 673.246 303.121C672.3 302.015 671.009 301.446 669.375 301.414C667.816 301.381 666.44 301.543 665.257 301.886C664.075 302.23 662.666 302.821 661.043 303.658L660.677 321.08L659.752 321.059L660.183 300.726Z" fill="#02394F"/>
<path d="M682.524 296.892C682.438 296.806 682.395 296.688 682.395 296.559L682.449 294.185C682.46 293.874 682.61 293.734 682.922 293.734L683.341 293.745C683.621 293.755 683.761 293.906 683.75 294.217L683.696 296.591C683.686 296.902 683.546 297.053 683.266 297.042L682.847 297.031C682.718 297.031 682.621 296.978 682.524 296.892ZM682.492 301.199L683.417 301.22L682.987 321.552L682.062 321.531L682.492 301.199Z" fill="#02394F"/>
<path d="M701.168 293.884L711.748 294.11C713.64 294.153 715.22 294.787 716.5 296.032C717.779 297.268 718.381 299.491 718.317 302.681C718.252 305.925 717.489 308.169 716.048 309.415C714.608 310.661 712.92 311.263 711.006 311.231C709.78 311.209 708.253 311.145 706.426 311.059C704.598 310.973 703.039 310.887 701.738 310.801L701.501 321.939L700.577 321.918L701.168 293.884ZM711.027 310.382C712.887 310.425 714.403 309.877 715.543 308.739C716.693 307.6 717.295 305.581 717.36 302.67C717.425 299.813 716.93 297.826 715.876 296.698C714.823 295.581 713.446 295.001 711.737 294.969L702.082 294.765L701.759 310.199L711.027 310.382Z" fill="#02394F"/>
<path d="M723.338 321.284C722.413 320.371 721.962 319.125 721.994 317.536L722.015 316.354C722.048 314.7 722.607 313.39 723.671 312.444C724.735 311.499 726.251 311.048 728.23 311.08L736.509 311.252L736.584 307.847C736.616 306.215 736.207 304.958 735.337 304.067C734.476 303.175 732.939 302.713 730.746 302.67L724.23 302.531L724.241 301.919L725.316 301.897C727.8 301.822 729.681 301.8 730.95 301.822C733.305 301.876 734.993 302.402 736.014 303.401C737.046 304.4 737.53 305.893 737.498 307.858L737.186 322.68L736.573 322.67L736.315 320.21C736.261 320.232 735.24 320.661 733.262 321.51C731.272 322.347 729.187 322.745 726.983 322.702C725.477 322.67 724.262 322.197 723.338 321.284ZM730.584 321.327C731.95 320.994 733.165 320.661 734.251 320.307C735.337 319.963 736.025 319.727 736.337 319.609L736.498 311.875L727.982 311.961C726.241 311.972 724.972 312.38 724.176 313.186C723.381 313.991 722.972 315.054 722.94 316.376L722.918 317.374C722.886 318.878 723.295 319.984 724.155 320.693C725.004 321.402 726.015 321.767 727.165 321.789C728.079 321.81 729.219 321.649 730.584 321.327Z" fill="#02394F"/>
<path d="M744.433 302.498L745.045 302.509L745.271 306.386C746.454 305.108 747.701 304.131 749.013 303.443C750.335 302.756 751.765 302.434 753.324 302.466C754.163 302.488 754.851 302.573 755.388 302.735L755.367 303.658C754.604 303.486 753.915 303.401 753.303 303.39C751.765 303.358 750.432 303.626 749.292 304.185C748.153 304.743 746.809 305.688 745.25 307.009L744.916 322.863L743.992 322.841L744.433 302.498Z" fill="#02394F"/>
<path d="M760.775 317.127L761.13 303.691L757.829 303.626L757.84 303.014L761.065 302.853L761.495 297.149L762.108 297.16L761.99 302.863L768.699 303.003L768.678 303.841L761.968 303.701L761.689 317.138C761.646 319.125 761.99 320.478 762.732 321.176C763.474 321.885 764.388 322.294 765.484 322.422L767.936 322.702L767.925 323.314L765.818 323.271C762.345 323.217 760.657 321.166 760.775 317.127Z" fill="#02394F"/>
<path d="M780.956 323.604C780.214 323.561 779.429 323.25 778.612 322.67C777.795 322.09 777.107 320.962 776.558 319.297L771.15 303.057L772.15 303.079L777.483 319.093C777.87 320.275 778.343 321.134 778.902 321.649C779.472 322.176 779.999 322.487 780.515 322.605C781.02 322.723 781.278 322.734 781.278 322.659L788.246 303.422L789.202 303.444L780.117 328.878L778.311 332.637L777.849 332.626L780.956 323.604Z" fill="#02394F"/>
</g>
</g>
<defs>
<clipPath id="clip0_3262_672">
<rect width="1200" height="750" fill="white"/>
</clipPath>
<clipPath id="clip1_3262_672">
<rect width="360.417" height="450.521" fill="white" transform="translate(525.507 278.622)"/>
</clipPath>
</defs>
</svg>
